<svg width="32" height="32" viewBox="0 0 32 32" xmlns="http://www.w3.org/2000/svg">
  <defs>
    <linearGradient id="phoneGradient" x1="0%" y1="0%" x2="100%" y2="100%">
      <stop offset="0%" style="stop-color:#2563EB"/>
      <stop offset="100%" style="stop-color:#0A1628"/>
    </linearGradient>
  </defs>
  
  <!-- Background circle -->
  <circle cx="16" cy="16" r="15" fill="url(#phoneGradient)" stroke="#fff" stroke-width="2"/>
  
  <!-- Phone/chat bubble icon -->
  <path d="M10 8h12c1.5 0 2.5 1 2.5 2.5v8c0 1.5-1 2.5-2.5 2.5h-2.5l-3.5 3.5v-3.5h-3.5c-1.5 0-2.5-1-2.5-2.5v-8c0-1.5 1-2.5 2.5-2.5z" 
        fill="#fff" stroke="none"/>
  
  <!-- AI indicator dots -->
  <circle cx="13" cy="14.5" r="1.2" fill="#2563EB"/>
  <circle cx="16" cy="14.5" r="1.2" fill="#2563EB"/>
  <circle cx="19" cy="14.5" r="1.2" fill="#2563EB"/>
  
  <!-- Sound waves to indicate voice -->
  <path d="M6 12c0 2 1 4 3 5" stroke="#fff" stroke-width="1.5" fill="none" stroke-linecap="round"/>
  <path d="M4 10c0 3 2 6 5 7" stroke="#fff" stroke-width="1.5" fill="none" stroke-linecap="round"/>
</svg>